<?xml version="1.0" encoding="UTF-8"?>
<svg width="500" height="500" version="1.1" viewBox="0 0 500 500" xmlns="http://www.w3.org/2000/svg" xmlns:cc="http://creativecommons.org/ns#" xmlns:dc="http://purl.org/dc/elements/1.1/" xmlns:rdf="http://www.w3.org/1999/02/22-rdf-syntax-ns#" xmlns:xlink="http://www.w3.org/1999/xlink">
 <defs>
  <linearGradient id="linearGradient1564">
   <stop stop-color="#535d6c" offset="0"/>
   <stop stop-color="#535d6c" stop-opacity="0" offset="1"/>
  </linearGradient>
  <linearGradient id="linearGradient1406">
   <stop stop-color="#697484" offset="0"/>
   <stop stop-color="#808b9d" offset="1"/>
  </linearGradient>
  <linearGradient id="linearGradient1721">
   <stop stop-color="#535d6c" offset="0"/>
   <stop stop-color="#6f7c91" offset="1"/>
  </linearGradient>
  <linearGradient id="linearGradient2940">
   <stop stop-color="#003380" offset="0"/>
   <stop stop-color="#0058dd" offset="1"/>
  </linearGradient>
  <linearGradient id="linearGradient2920">
   <stop stop-color="#535d6c" offset="0"/>
   <stop stop-color="#939dac" offset="1"/>
  </linearGradient>
  <linearGradient id="linearGradient1408" x1="153.1" x2="197.1" y1="494.8" y2="494.8" gradientTransform="translate(265.9 -209.3)" gradientUnits="userSpaceOnUse" xlink:href="#linearGradient1406"/>
  <radialGradient id="radialGradient1540" cx="219.4" cy="472.1" r="28.35" gradientTransform="matrix(1.381 2.068e-6 -2.917e-6 1.95 166.3 -636.5)" gradientUnits="userSpaceOnUse" xlink:href="#linearGradient1721"/>
  <radialGradient id="radialGradient1542" cx="263.1" cy="396" r="20.55" gradientTransform="matrix(3.421 .005363 -.007063 4.506 -376.3 -1502)" gradientUnits="userSpaceOnUse">
   <stop stop-color="#282d34" offset="0"/>
   <stop stop-color="#1a1e22" stop-opacity="0" offset="1"/>
  </radialGradient>
  <linearGradient id="linearGradient1544" x1="267.7" x2="305.2" y1="395.6" y2="395.6" gradientTransform="matrix(.955 -2.837e-8 2.837e-8 .955 233 -94.06)" gradientUnits="userSpaceOnUse">
   <stop stop-color="#535d6c" offset="0"/>
   <stop stop-color="#939dac" offset="1"/>
  </linearGradient>
  <radialGradient id="radialGradient1546" cx="289.8" cy="471.6" r="7.032" gradientTransform="matrix(1.23 0 0 1.23 171.5 -296.7)" gradientUnits="userSpaceOnUse">
   <stop stop-color="#939dac" offset="0"/>
   <stop stop-color="#6b788c" offset="1"/>
  </radialGradient>
  <linearGradient id="linearGradient1558" x1="63.11" x2="106.6" y1="509.4" y2="509.4" gradientTransform="translate(298.9 -209.3)" gradientUnits="userSpaceOnUse">
   <stop stop-color="#6f7c91" offset="0"/>
   <stop stop-color="#6f7c91" stop-opacity="0" offset="1"/>
  </linearGradient>
  <linearGradient id="linearGradient1566" x1="109.9" x2="151.3" y1="464.9" y2="464.9" gradientTransform="translate(272.6 -209.3)" gradientUnits="userSpaceOnUse" xlink:href="#linearGradient1564"/>
  <linearGradient id="linearGradient1712" x1="109.9" x2="151.3" y1="464.9" y2="464.9" gradientTransform="matrix(.3027 0 0 .3027 357 115.3)" gradientUnits="userSpaceOnUse" xlink:href="#linearGradient1564"/>
  <linearGradient id="linearGradient1719" x1="109.9" x2="151.3" y1="464.9" y2="464.9" gradientTransform="matrix(.2563 0 0 .2563 369.4 131.3)" gradientUnits="userSpaceOnUse" xlink:href="#linearGradient1564"/>
  <linearGradient id="linearGradient1741" x1="109.9" x2="151.3" y1="464.9" y2="464.9" gradientTransform="matrix(.2563 0 0 .2563 373.9 131.3)" gradientUnits="userSpaceOnUse" xlink:href="#linearGradient1564"/>
  <linearGradient id="linearGradient1745" x1="109.9" x2="151.3" y1="464.9" y2="464.9" gradientTransform="matrix(.2563 0 0 .2563 378.6 131.3)" gradientUnits="userSpaceOnUse" xlink:href="#linearGradient1564"/>
  <radialGradient id="radialGradient1808" cx="38.95" cy="136.1" r="114.5" gradientTransform="matrix(-2.133 -1.116 .6369 -.8248 441 481)" gradientUnits="userSpaceOnUse" xlink:href="#linearGradient2920"/>
  <radialGradient id="radialGradient1863" cx="38.95" cy="136.1" r="114.5" gradientTransform="matrix(-1.181 -.6178 .3526 -.4566 394.7 393.7)" gradientUnits="userSpaceOnUse" xlink:href="#linearGradient2920"/>
  <radialGradient id="radialGradient1924" cx="38.95" cy="136.1" r="114.5" gradientTransform="matrix(-1.826 -.9556 .5453 -.7062 313.9 452.9)" gradientUnits="userSpaceOnUse" xlink:href="#linearGradient2920"/>
  <radialGradient id="radialGradient2106" cx="48.24" cy="167.5" r="48.93" gradientTransform="matrix(1.81 1.08 -.6823 1.144 250.6 -569.4)" gradientUnits="userSpaceOnUse" xlink:href="#linearGradient2940"/>
  <radialGradient id="radialGradient2108" cx="48.24" cy="167.5" r="48.93" gradientTransform="matrix(1.81 1.08 -.6823 1.144 250.5 -527)" gradientUnits="userSpaceOnUse" xlink:href="#linearGradient2940"/>
  <radialGradient id="radialGradient2110" cx="48.24" cy="167.5" r="48.93" gradientTransform="matrix(1.81 1.08 -.6823 1.144 184.1 -527)" gradientUnits="userSpaceOnUse" xlink:href="#linearGradient2940"/>
  <radialGradient id="radialGradient2112" cx="48.24" cy="167.5" r="48.93" gradientTransform="matrix(1.81 1.08 -.6823 1.144 117.6 -527)" gradientUnits="userSpaceOnUse" xlink:href="#linearGradient2940"/>
  <radialGradient id="radialGradient2114" cx="48.24" cy="167.5" r="48.93" gradientTransform="matrix(1.81 1.08 -.6823 1.144 117.6 -569.4)" gradientUnits="userSpaceOnUse" xlink:href="#linearGradient2940"/>
  <radialGradient id="radialGradient2116" cx="48.24" cy="167.5" r="48.93" gradientTransform="matrix(1.81 1.08 -.6823 1.144 183.4 -569.4)" gradientUnits="userSpaceOnUse" xlink:href="#linearGradient2940"/>
  <radialGradient id="radialGradient2118" cx="38.95" cy="136.1" r="114.5" gradientTransform="matrix(2.863 1.249 -.8549 .9229 89 -505.3)" gradientUnits="userSpaceOnUse" xlink:href="#linearGradient2920"/>
  <radialGradient id="radialGradient2144" cx="48.24" cy="167.5" r="48.93" gradientTransform="matrix(1.81 1.08 -.6823 1.144 565.5 -567)" gradientUnits="userSpaceOnUse" xlink:href="#linearGradient2940"/>
  <radialGradient id="radialGradient2146" cx="48.24" cy="167.5" r="48.93" gradientTransform="matrix(1.81 1.08 -.6823 1.144 565.4 -524.6)" gradientUnits="userSpaceOnUse" xlink:href="#linearGradient2940"/>
  <radialGradient id="radialGradient2148" cx="48.24" cy="167.5" r="48.93" gradientTransform="matrix(1.81 1.08 -.6823 1.144 499 -524.6)" gradientUnits="userSpaceOnUse" xlink:href="#linearGradient2940"/>
  <radialGradient id="radialGradient2150" cx="48.24" cy="167.5" r="48.93" gradientTransform="matrix(1.81 1.08 -.6823 1.144 432.6 -524.6)" gradientUnits="userSpaceOnUse" xlink:href="#linearGradient2940"/>
  <radialGradient id="radialGradient2152" cx="48.24" cy="167.5" r="48.93" gradientTransform="matrix(1.81 1.08 -.6823 1.144 432.6 -567)" gradientUnits="userSpaceOnUse" xlink:href="#linearGradient2940"/>
  <radialGradient id="radialGradient2154" cx="48.24" cy="167.5" r="48.93" gradientTransform="matrix(1.81 1.08 -.6823 1.144 498.3 -567)" gradientUnits="userSpaceOnUse" xlink:href="#linearGradient2940"/>
  <radialGradient id="radialGradient2156" cx="38.95" cy="136.1" r="114.5" gradientTransform="matrix(2.863 1.249 -.8549 .9229 403.9 -502.9)" gradientUnits="userSpaceOnUse" xlink:href="#linearGradient2920"/>
  <linearGradient id="linearGradient1282" x1="200.4" x2="240.5" y1="285.5" y2="285.5" gradientUnits="userSpaceOnUse" xlink:href="#linearGradient1406"/>
  <radialGradient id="radialGradient1496" cx="219.4" cy="472.1" r="28.35" gradientTransform="matrix(1.381 2.068e-6 -2.917e-6 1.95 166.3 -636.5)" gradientUnits="userSpaceOnUse" xlink:href="#linearGradient1721"/>
 </defs>
 <metadata>
  <rdf:RDF>
   <cc:Work rdf:about="">
    <dc:format>image/svg+xml</dc:format>
    <dc:type rdf:resource="http://purl.org/dc/dcmitype/StillImage"/>
    <dc:title/>
   </cc:Work>
  </rdf:RDF>
 </metadata>
 <g transform="matrix(.8342 0 0 .8342 -30.9 11.09)">
  <g>
   <path d="m209.8 263.6-42.46 16.09-0.0166 11.63 42.41 16.1z" fill="#b7bec8"/>
   <path d="m211 263.4v4e-3a10.76 22.07 0 0 0-10.56 22.11 10.76 22.07 0 0 0 10.56 22.11v0.0547l29.5-0.0684-0.9883-44.22h-28.31z" fill="url(#linearGradient1282)"/>
   <path d="m258.6 252.2-19.8 11.36a10.89 22.35 0 0 0-8.896 21.97 10.89 22.35 0 0 0 7.984 21.54v0.0391l21.3 12.02z" fill="#717d92"/>
   <path d="m262.5 251.3a16.69 34.25 0 0 0-16.74 34.25 16.69 34.25 0 0 0 16.78 34.25 16.69 34.25 0 0 0 0.0335 0h49.17v-68.5h-49.2a16.69 34.25 0 0 0-0.0335 0 16.69 34.25 0 0 0-5e-3 0z" fill="url(#radialGradient1924)" opacity=".9981"/>
  </g>
  <path d="m311.6 251.3a16.69 34.25 0 0 0-16.69 34.25 16.69 34.25 0 0 0 16.69 34.25 16.69 34.25 0 0 0 0.0937 0 16.69 34.25 0 0 0 8.439-4.898l8.615-9.627v-39.69l-8.715-9.514-8e-3 -8e-3a16.69 34.25 0 0 0-1.322-1.441l-0.2051-0.2246-0.0547-0.0234a16.69 34.25 0 0 0-6.75-3.078 16.69 34.25 0 0 0-0.082 0 16.69 34.25 0 0 0-0.0117 0z" fill="#6f7c91"/>
  <g>
   <path d="m327.1 263.4c-3.739 0.0792-6.234 3.454-7.71 6.526-3.661 8.165-3.967 17.6-1.815 26.21 1.111 4.188 2.989 8.661 6.897 10.94 2.463 1.075 5.207 0.4481 7.806 0.6136h2.392v-44.29h-7.57zm7.57 0v44.29h15.16c-3.836-0.2156-6.278-3.759-7.744-6.938-3.507-8.226-3.765-17.65-1.495-26.24 1.089-4.057 3.041-8.219 6.702-10.53 0.9026-0.4005 3.409-0.6649 1.203-0.5844-4.608 0-9.215 0-13.82 1e-5z" fill="url(#radialGradient1863)"/>
   <path d="m371.4 245.5-7.158 2.74-17.96 15.12c-1.902 1.338-3.294 4.778-4.25 6.814-3.253 7.404-3.665 15.84-2.197 23.72 0.9044 4.141 2.299 10.72 5.41 13.74l19.74 15.75 7.373 2.055 8e-3 -2e-3z" fill="#737f94"/>
   <path d="m371.4 245.5c-6.404 0.0961-10.84 5.826-13.51 11.04-6.156 12.74-7.101 27.5-5.088 41.35 1.557 8.896 4.245 18.42 11.19 24.66 2.657 2.473 6.294 2.95 9.855 2.95h64.7v-80z" fill="url(#radialGradient1808)" opacity=".9981"/>
  </g>
  <path d="m438.5 245.5c-10.79-0.0735-19.55 17.86-19.55 40-1.7e-4 22.18 8.793 40.12 19.6 40 3.574-0.0719 7.069-2.159 10.1-6.033l18.35-20.26 0.0164-27.48-18.81-20.74c-2.932-3.523-6.261-5.412-9.658-5.48-0.015-4e-5 -0.03-4e-5 -0.0449 0z" fill="url(#linearGradient1408)"/>
  <g>
   <path d="m471 285.5a7.538 15.47 0 0 1-7.485 15.5 7.538 15.47 0 0 1-7.561-15.5 7.538 15.47 0 0 1 7.561-15.5 7.538 15.47 0 0 1 7.485 15.5z" fill="#8894a5"/>
   <path d="m463.5 270-0.0167 31h19.66v-31.03z" fill="#8894a5"/>
   <path d="m520.8 228.8a55.28 26.93 90 0 1 0.2616 0 55.28 51.39 90 0 0-0.1308 0 55.28 51.39 90 0 0-0.1308 0z" fill="#535d6c" opacity=".6997"/>
   <path d="m520.8 228.8a55.28 51.39 90 0 0-51.28 55.33 55.28 51.39 90 0 0 51.28 55.33 55.28 26.93 90 0 1-0.7848 0 55.28 26.93 90 0 0 0.7848 0 55.28 26.93 90 0 0 0.3924 0 55.28 26.93 90 0 0 26.68-55.33 55.28 26.93 90 0 0-26.68-55.33 55.28 26.93 90 0 0-0.3924 0zm-0.3924 0a55.28 26.93 90 0 0-1.308 0.2616 55.28 26.93 90 0 1 1.308-0.2616zm-1.308 0.2616a55.28 26.93 90 0 0-1.57 0.2616 55.28 26.93 90 0 0-1.177 0.3924 55.28 26.93 90 0 0-0.7848 0.2616 55.28 26.93 90 0 0-0.7848 0.3924 55.28 26.93 90 0 0-0.654 0.5232 55.28 26.93 90 0 1 0.654-0.5232 55.28 26.93 90 0 1 0.7848-0.3924 55.28 26.93 90 0 1 0.7848-0.2616 55.28 26.93 90 0 1 1.177-0.3924 55.28 26.93 90 0 1 1.57-0.2616zm-5.494 2.093a55.28 26.93 90 0 0-1.308 0.654 55.28 26.93 90 0 0-1.046 0.9156 55.28 26.93 90 0 1 1.046-0.9156 55.28 26.93 90 0 1 1.308-0.654zm-2.355 1.57a55.28 26.93 90 0 0-0.654 0.654 55.28 26.93 90 0 1 0.654-0.654zm-0.654 0.654a55.28 26.93 90 0 0-1.046 0.9156 55.28 26.93 90 0 1 1.046-0.9156zm-1.439 1.308a55.28 26.93 90 0 0-0.7848 0.654 55.28 26.93 90 0 1 0.7848-0.654zm-1.177 1.177a55.28 26.93 90 0 0-1.7 2.224 55.28 26.93 90 0 1 1.7-2.224zm-1.7 2.224a55.28 26.93 90 0 0-1.439 1.7 55.28 26.93 90 0 1 1.439-1.7zm-1.962 2.747a55.28 26.93 90 0 0-0.9156 1.57 55.28 26.93 90 0 1 0.9156-1.57zm-2.485 4.578a55.28 26.93 90 0 0-0.5232 1.046 55.28 26.93 90 0 1 0.5232-1.046zm-0.5232 1.046a55.28 26.93 90 0 0-0.5232 1.177 55.28 26.93 90 0 0-0.5232 1.439 55.28 26.93 90 0 1 0.5232-1.439 55.28 26.93 90 0 1 0.5232-1.177zm-1.177 3.27a55.28 26.93 90 0 0-0.5232 1.308 55.28 26.93 90 0 1 0.5232-1.308zm-0.9156 1.831a55.28 26.93 90 0 0-0.3924 1.308 55.28 26.93 90 0 1 0.3924-1.308zm-1.046 3.532a55.28 26.93 90 0 0-0.3924 1.439 55.28 26.93 90 0 1 0.3924-1.439zm-1.046 4.317a55.28 26.93 90 0 0-0.7848 3.009 55.28 26.93 90 0 1 0.7848-3.009zm-1.57 7.718a55.28 26.93 90 0 0-0.2616 1.57 55.28 26.93 90 0 1 0.2616-1.57zm-1.439 17.92a55.28 26.93 90 0 0 0 2.485 55.28 26.93 90 0 1 0-2.485zm0.1308 4.578a55.28 26.93 90 0 0 0 1.308 55.28 26.93 90 0 1 0-1.308zm1.046 10.33a55.28 26.93 90 0 0 0.2616 1.439 55.28 26.93 90 0 1-0.2616-1.439zm0.3924 2.355a55.28 26.93 90 0 0 0.5232 3.009 55.28 26.93 90 0 1-0.5232-3.009zm3.009 12.56a55.28 26.93 90 0 0 0.3924 1.308 55.28 26.93 90 0 1-0.3924-1.308zm0.3924 1.439a55.28 26.93 90 0 0 0.5232 1.046 55.28 26.93 90 0 1-0.5232-1.046zm1.57 3.793a55.28 26.93 90 0 0 0.7848 1.831 55.28 26.93 90 0 1-0.7848-1.831zm3.401 6.933a55.28 26.93 90 0 0 1.046 1.57 55.28 26.93 90 0 1-1.046-1.57zm1.962 2.878a55.28 26.93 90 0 0 1.046 1.439 55.28 26.93 90 0 1-1.046-1.439zm1.7 2.224a55.28 26.93 90 0 0 0.654 0.7848 55.28 26.93 90 0 1-0.654-0.7848zm0.7848 1.046a55.28 26.93 90 0 0 0.654 0.654 55.28 26.93 90 0 1-0.654-0.654zm1.308 1.308a55.28 26.93 90 0 0 0.7848 0.5232 55.28 26.93 90 0 1-0.7848-0.5232zm0.9156 0.654a55.28 26.93 90 0 0 0.9156 0.9156 55.28 26.93 90 0 1-0.9156-0.9156zm1.831 1.439a55.28 26.93 90 0 0 0.654 0.5232 55.28 26.93 90 0 1-0.654-0.5232zm1.962 1.308a55.28 26.93 90 0 0 1.046 0.5232 55.28 26.93 90 0 1-1.046-0.5232zm1.439 0.654a55.28 26.93 90 0 0 1.308 0.3924 55.28 26.93 90 0 1-1.308-0.3924zm1.7 0.5232a55.28 26.93 90 0 0 0.654 0.1308 55.28 26.93 90 0 1-0.654-0.1308zm0.7848 0.1308a55.28 26.93 90 0 0 0.654 0.1308 55.28 26.93 90 0 0 0.9156 0.1308 55.28 26.93 90 0 1-0.9156-0.1308 55.28 26.93 90 0 1-0.654-0.1308z" fill="url(#radialGradient1540)"/>
   <path d="m547.8 284.1a55.28 26.93 90 0 1-26.68 55.33 55.28 26.93 90 0 1-27.08-55.33 55.28 26.93 90 0 1 27.08-55.33 55.28 26.93 90 0 1 26.68 55.33z" fill="url(#radialGradient1542)"/>
   <path d="m488.6 277.7v12.03l35.84-2.355-1e-5 -7.194z" fill="url(#linearGradient1544)"/>
   <circle cx="528" cy="283.4" r="8.654" fill="url(#radialGradient1546)"/>
  </g>
  <path d="m370.4 313.9a19.49 40 0 0 1-7.916-27.52h34.66a19.49 40 0 0 0 7.916 27.52z" fill="url(#linearGradient1558)" opacity=".5994" stroke="#373e48" stroke-linejoin="bevel"/>
  <g fill="#535d6c" stroke="#474f5c" stroke-linejoin="bevel">
   <path d="m388.7 309.8a4.627 9.497 0 0 1-1.879-6.534h8.228a4.627 9.497 0 0 0 1.879 6.534z" stroke-width=".2374"/>
   <g stroke-width=".09176">
    <path d="m381.4 307.8a1.788 3.671 0 0 1-0.7264-2.525h3.18a1.788 3.671 0 0 0 0.7264 2.525z"/>
    <path d="m376.7 307.8a1.788 3.671 0 0 1-0.7264-2.525h3.18a1.788 3.671 0 0 0 0.7264 2.525z"/>
    <path d="m372.2 307.8a1.788 3.671 0 0 1-0.7264-2.525h3.18a1.788 3.671 0 0 0 0.7264 2.525z"/>
   </g>
   <path d="m376.5 296.2a4.627 9.497 0 0 1-1.879-6.534h8.228a4.627 9.497 0 0 0 1.879 6.534z" stroke-width=".3"/>
  </g>
  <g>
   <path d="m399.7 246.1a19.49 40 0 0 0-16.66 19.04h23.87a19.49 40 0 0 1 16.6-19.04h-23.76z" fill="url(#linearGradient1566)" opacity=".5994" stroke="#2f353c" stroke-linecap="round" stroke-linejoin="round"/>
   <path d="m392.6 254.6a5.899 12.11 0 0 0-2.199 4.283h7.225a5.899 12.11 0 0 1 2.144-4.219z" fill="url(#linearGradient1712)" stroke="#444d57" stroke-linecap="round" stroke-linejoin="round" stroke-width=".303"/>
   <g stroke="#2f353c" stroke-linecap="round" stroke-linejoin="round" stroke-width=".2563">
    <path d="m402 248c-0.9337-6e-3 -1.85 0.5254-2.644 1.534h2.932c0.7896-1.003 1.7-1.534 2.628-1.534h-2.904z" fill="url(#linearGradient1719)" opacity=".5994"/>
    <path d="m406.5 248c-0.9337-6e-3 -1.85 0.5254-2.644 1.534h2.932c0.7896-1.003 1.7-1.534 2.628-1.534h-2.904z" fill="url(#linearGradient1741)" opacity=".5994"/>
    <path d="m411.2 248c-0.9337-6e-3 -1.85 0.5254-2.644 1.534h2.932c0.7896-1.003 1.7-1.534 2.628-1.534h-2.904z" fill="url(#linearGradient1745)" opacity=".5994"/>
   </g>
   <g stroke="#4a525e" stroke-linejoin="bevel">
    <path d="m269.2 262.5a16.78 34.44 0 0 0-0.0864 0.1878 16.78 34.44 0 0 0-0.0281 0.0539 16.78 34.44 0 0 0-0.1576 0.3476 16.78 34.44 0 0 0-0.0194 0.0389 16.78 34.44 0 0 0-0.1079 0.2439 16.78 34.44 0 0 0-0.0518 0.1166 16.78 34.44 0 0 0-0.0626 0.1425 16.78 34.44 0 0 0-0.1662 0.3886 16.78 34.44 0 0 0-0.1209 0.2936 16.78 34.44 0 0 0-0.1338 0.3216 16.78 34.44 0 0 0-0.0151 0.041 16.78 34.44 0 0 0-0.0863 0.2137 16.78 34.44 0 0 0-0.1252 0.3238 16.78 34.44 0 0 0-0.1166 0.3044 16.78 34.44 0 0 0-0.0756 0.2051 16.78 34.44 0 0 0-0.0583 0.1554 16.78 34.44 0 0 0-0.0561 0.1554 16.78 34.44 0 0 0-0.1468 0.4145 16.78 34.44 0 0 0-0.2375 0.6886 16.78 34.44 0 0 0-0.095 0.2893 16.78 34.44 0 0 0-0.095 0.3001 16.78 34.44 0 0 0-0.136 0.4339 16.78 34.44 0 0 0-0.1338 0.4382 16.78 34.44 0 0 0-0.1295 0.4425 16.78 34.44 0 0 0-0.1252 0.4468 16.78 34.44 0 0 0-0.1122 0.4015 16.78 34.44 0 0 0-0.0345 0.1317 16.78 34.44 0 0 0-0.054 0.2008 16.78 34.44 0 0 0-0.0432 0.1705 16.78 34.44 0 0 0-0.1166 0.4555 16.78 34.44 0 0 0-0.1122 0.462 16.78 34.44 0 0 0-0.1079 0.4533 16.78 34.44 0 0 0-0.0108 0.0389 16.78 34.44 0 0 0-0.0605 0.2655 16.78 34.44 0 0 0-0.0389 0.1748 16.78 34.44 0 0 0-0.1015 0.4706 16.78 34.44 0 0 0-0.3778 1.915 16.78 34.44 0 0 0-0.0842 0.4857 16.78 34.44 0 0 0-0.082 0.4792 16.78 34.44 0 0 0-2e-3 0.0151 16.78 34.44 0 0 0-0.1511 0.9779 16.78 34.44 0 0 0-0.0712 0.4943 16.78 34.44 0 0 0-0.1317 0.9973 16.78 34.44 0 0 0-0.0389 0.313 16.78 34.44 0 0 0-0.0216 0.1878 16.78 34.44 0 0 0-0.0561 0.49 16.78 34.44 0 0 0-4e-3 0.0389 16.78 34.44 0 0 0-0.0496 0.4792 16.78 34.44 0 0 0-0.0475 0.5051 16.78 34.44 0 0 0-0.1252 1.496 16.78 34.44 0 0 0-7e-3 0.0971 16.78 34.44 0 0 0-0.0173 0.2547 16.78 34.44 0 0 0-0.0194 0.3281h20.55a16.78 34.44 0 0 1 4.648-19.77z" fill="#6a788c" stroke-width="1.105"/>
    <path d="m272.4 266.1a4.381 8.991 0 0 0-0.0226 0.049 4.381 8.991 0 0 0-7e-3 0.0141 4.381 8.991 0 0 0-0.0411 0.0908 4.381 8.991 0 0 0-5e-3 0.0102 4.381 8.991 0 0 0-0.0282 0.0637 4.381 8.991 0 0 0-0.0135 0.0304 4.381 8.991 0 0 0-0.0163 0.0372 4.381 8.991 0 0 0-0.0434 0.1015 4.381 8.991 0 0 0-0.0316 0.0766 4.381 8.991 0 0 0-0.035 0.084 4.381 8.991 0 0 0-4e-3 0.0107 4.381 8.991 0 0 0-0.0225 0.0558 4.381 8.991 0 0 0-0.0327 0.0846 4.381 8.991 0 0 0-0.0304 0.0795 4.381 8.991 0 0 0-0.0197 0.0536 4.381 8.991 0 0 0-0.0152 0.0406 4.381 8.991 0 0 0-0.0146 0.0406 4.381 8.991 0 0 0-0.0383 0.1082 4.381 8.991 0 0 0-0.062 0.1798 4.381 8.991 0 0 0-0.0248 0.0755 4.381 8.991 0 0 0-0.0248 0.0783 4.381 8.991 0 0 0-0.0355 0.1133 4.381 8.991 0 0 0-0.0349 0.1144 4.381 8.991 0 0 0-0.0338 0.1155 4.381 8.991 0 0 0-0.0327 0.1167 4.381 8.991 0 0 0-0.0293 0.1048 4.381 8.991 0 0 0-9e-3 0.0344 4.381 8.991 0 0 0-0.0141 0.0524 4.381 8.991 0 0 0-0.0113 0.0445 4.381 8.991 0 0 0-0.0304 0.1189 4.381 8.991 0 0 0-0.0293 0.1206 4.381 8.991 0 0 0-0.0282 0.1184 4.381 8.991 0 0 0-3e-3 0.0102 4.381 8.991 0 0 0-0.0158 0.0693 4.381 8.991 0 0 0-0.0102 0.0457 4.381 8.991 0 0 0-0.0265 0.1229 4.381 8.991 0 0 0-0.0986 0.4999 4.381 8.991 0 0 0-0.022 0.1268 4.381 8.991 0 0 0-0.0214 0.1251 4.381 8.991 0 0 0-5.8e-4 4e-3 4.381 8.991 0 0 0-0.0394 0.2553 4.381 8.991 0 0 0-0.0186 0.1291 4.381 8.991 0 0 0-0.0344 0.2604 4.381 8.991 0 0 0-0.0102 0.0817 4.381 8.991 0 0 0-6e-3 0.049 4.381 8.991 0 0 0-0.0147 0.128 4.381 8.991 0 0 0-1e-3 0.0102 4.381 8.991 0 0 0-0.013 0.1251 4.381 8.991 0 0 0-0.0124 0.1319 4.381 8.991 0 0 0-0.0327 0.3906 4.381 8.991 0 0 0-2e-3 0.0254 4.381 8.991 0 0 0-5e-3 0.0665 4.381 8.991 0 0 0-5e-3 0.0857h5.366a4.381 8.991 0 0 1 1.214-5.161z" fill="#606d7f" stroke-width=".2886"/>
    <path d="m273.4 276.6a2.572 5.279 0 0 0-2e-3 4e-3 2.572 5.279 0 0 0-0.0215 0.0684 2.572 5.279 0 0 0-0.0176 0.0684 2.572 5.279 0 0 0-0.0176 0.0625 2.572 5.279 0 0 0-6e-3 0.0195 2.572 5.279 0 0 0-8e-3 0.0312 2.572 5.279 0 0 0-8e-3 0.0254 2.572 5.279 0 0 0-0.0176 0.0703 2.572 5.279 0 0 0-0.0156 0.0703 2.572 5.279 0 0 0-0.0176 0.0703 2.572 5.279 0 0 0-2e-3 6e-3 2.572 5.279 0 0 0-0.01 0.041 2.572 5.279 0 0 0-6e-3 0.0254 2.572 5.279 0 0 0-0.0156 0.0723 2.572 5.279 0 0 0-0.0566 0.2949 2.572 5.279 0 0 0-0.0137 0.0742 2.572 5.279 0 0 0-0.0117 0.0723 2.572 5.279 0 0 0 0 4e-3 2.572 5.279 0 0 0-0.0234 0.1484 2.572 5.279 0 0 0-0.0117 0.0762 2.572 5.279 0 0 0-0.0195 0.1523 2.572 5.279 0 0 0-6e-3 0.0488 2.572 5.279 0 0 0-4e-3 0.0293 2.572 5.279 0 0 0-8e-3 0.0742 2.572 5.279 0 0 0-2e-3 6e-3 2.572 5.279 0 0 0-8e-3 0.0742 2.572 5.279 0 0 0-6e-3 0.0762 2.572 5.279 0 0 0-0.0195 0.2305 2.572 5.279 0 0 0-2e-3 0.0156 2.572 5.279 0 0 0-2e-3 0.0391 2.572 5.279 0 0 0-4e-3 0.0488h3.152a2.572 5.279 0 0 1 0.3594-2.1z" fill="#4f5a69" stroke-width=".1694"/>
    <path d="m277.8 276.6a2.572 5.279 0 0 0-2e-3 4e-3 2.572 5.279 0 0 0-0.0215 0.0684 2.572 5.279 0 0 0-0.0176 0.0684 2.572 5.279 0 0 0-0.0176 0.0625 2.572 5.279 0 0 0-6e-3 0.0195 2.572 5.279 0 0 0-8e-3 0.0312 2.572 5.279 0 0 0-8e-3 0.0254 2.572 5.279 0 0 0-0.0176 0.0703 2.572 5.279 0 0 0-0.0156 0.0703 2.572 5.279 0 0 0-0.0176 0.0703 2.572 5.279 0 0 0-2e-3 6e-3 2.572 5.279 0 0 0-0.01 0.041 2.572 5.279 0 0 0-6e-3 0.0254 2.572 5.279 0 0 0-0.0156 0.0723 2.572 5.279 0 0 0-0.0566 0.2949 2.572 5.279 0 0 0-0.0137 0.0742 2.572 5.279 0 0 0-0.0117 0.0723 2.572 5.279 0 0 0 0 4e-3 2.572 5.279 0 0 0-0.0234 0.1484 2.572 5.279 0 0 0-0.0117 0.0762 2.572 5.279 0 0 0-0.0195 0.1523 2.572 5.279 0 0 0-6e-3 0.0488 2.572 5.279 0 0 0-4e-3 0.0293 2.572 5.279 0 0 0-8e-3 0.0742 2.572 5.279 0 0 0-2e-3 6e-3 2.572 5.279 0 0 0-8e-3 0.0742 2.572 5.279 0 0 0-6e-3 0.0762 2.572 5.279 0 0 0-0.0195 0.2305 2.572 5.279 0 0 0-2e-3 0.0156 2.572 5.279 0 0 0-2e-3 0.0391 2.572 5.279 0 0 0-4e-3 0.0488h3.152a2.572 5.279 0 0 1 0.3594-2.1z" fill="#4f5a69" stroke-width=".1694"/>
   </g>
   <path d="m284.3 253.4a3.59 1.795 0 0 1-3.59 1.795 3.59 1.795 0 0 1-3.59-1.795 3.59 1.795 0 0 1 3.59-1.795 3.59 1.795 0 0 1 3.59 1.795z" fill="#848ea0"/>
   <path d="m277.2 229h7.18v24.4h-7.18z" fill="#848ea0"/>
   <path d="m284.3 229a3.59 1.795 0 0 1-3.59 1.795 3.59 1.795 0 0 1-3.59-1.795 3.59 1.795 0 0 1 3.59-1.795 3.59 1.795 0 0 1 3.59 1.795z" fill="#939dac"/>
   <rect transform="matrix(.00748 1 -.9799 .1995 0 0)" x="81.32" y="-328" width="205.6" height="89.5" rx="8.176" ry="8.368" fill="#667285"/>
   <rect transform="matrix(.00748 1 -.9799 .1995 0 0)" x="84.17" y="-331.3" width="205.6" height="89.5" rx="8.176" ry="8.368" fill="url(#radialGradient2118)"/>
   <rect transform="matrix(.00748 1 -.9799 .1995 0 0)" x="155.9" y="-325.9" width="60.96" height="36.47" rx="4.68" ry="4.679" fill="url(#radialGradient2116)" opacity=".9981"/>
   <rect transform="matrix(.00748 1 -.9799 .1995 0 0)" x="90.2" y="-325.9" width="60.96" height="36.47" rx="4.68" ry="4.679" fill="url(#radialGradient2114)" opacity=".9981"/>
   <rect transform="matrix(.00748 1 -.9799 .1995 0 0)" x="90.2" y="-283.5" width="60.96" height="36.47" rx="4.68" ry="4.679" fill="url(#radialGradient2112)" opacity=".9981"/>
   <rect transform="matrix(.00748 1 -.9799 .1995 0 0)" x="156.6" y="-283.5" width="60.96" height="36.47" rx="4.68" ry="4.679" fill="url(#radialGradient2110)" opacity=".9981"/>
   <rect transform="matrix(.00748 1 -.9799 .1995 0 0)" x="223.1" y="-283.5" width="60.96" height="36.47" rx="4.68" ry="4.679" fill="url(#radialGradient2108)" opacity=".9981"/>
   <rect transform="matrix(.00748 1 -.9799 .1995 0 0)" x="223.2" y="-325.9" width="60.96" height="36.47" rx="4.68" ry="4.679" fill="url(#radialGradient2106)" opacity=".9981"/>
   <rect transform="matrix(.00748 1 -.9799 .1995 0 0)" x="396.2" y="-325.6" width="205.6" height="89.5" rx="8.176" ry="8.368" fill="#667285"/>
   <rect transform="matrix(.00748 1 -.9799 .1995 0 0)" x="399.1" y="-328.9" width="205.6" height="89.5" rx="8.176" ry="8.368" fill="url(#radialGradient2156)"/>
  </g>
  <g fill="#848ea0">
   <path d="m284.3 316.2a3.59 1.795 0 0 0-3.59-1.795 3.59 1.795 0 0 0-3.59 1.795 3.59 1.795 0 0 0 3.59 1.795 3.59 1.795 0 0 0 3.59-1.795z"/>
   <path d="m277.2 340.6h7.18v-24.4h-7.18z"/>
   <path d="m284.3 340.6a3.59 1.795 0 0 0-3.59-1.795 3.59 1.795 0 0 0-3.59 1.795 3.59 1.795 0 0 0 3.59 1.795 3.59 1.795 0 0 0 3.59-1.795z"/>
  </g>
  <g>
   <rect transform="matrix(.00748 1 -.9799 .1995 0 0)" x="470.8" y="-323.5" width="60.96" height="36.47" rx="4.68" ry="4.679" fill="url(#radialGradient2154)" opacity=".9981"/>
   <rect transform="matrix(.00748 1 -.9799 .1995 0 0)" x="405.1" y="-323.5" width="60.96" height="36.47" rx="4.68" ry="4.679" fill="url(#radialGradient2152)" opacity=".9981"/>
   <rect transform="matrix(.00748 1 -.9799 .1995 0 0)" x="405.1" y="-281.1" width="60.96" height="36.47" rx="4.68" ry="4.679" fill="url(#radialGradient2150)" opacity=".9981"/>
   <rect transform="matrix(.00748 1 -.9799 .1995 0 0)" x="471.6" y="-281.1" width="60.96" height="36.47" rx="4.68" ry="4.679" fill="url(#radialGradient2148)" opacity=".9981"/>
   <rect transform="matrix(.00748 1 -.9799 .1995 0 0)" x="538" y="-281.1" width="60.96" height="36.47" rx="4.68" ry="4.679" fill="url(#radialGradient2146)" opacity=".9981"/>
   <rect transform="matrix(.00748 1 -.9799 .1995 0 0)" x="538.1" y="-323.5" width="60.96" height="36.47" rx="4.68" ry="4.679" fill="url(#radialGradient2144)" opacity=".9981"/>
   <path d="m139.4 279.6 28.59 0.1052-6e-3 11.62-28.59 0.1119z" fill="#dbdee3"/>
   <path d="m170.7 285.5a2.879 5.909 0 0 1-2.859 5.921 2.879 5.909 0 0 1-2.888-5.921 2.879 5.909 0 0 1 2.888-5.921 2.879 5.909 0 0 1 2.859 5.921z" fill="#b7bec8"/>
   <path d="m128.5 279.6 11.7 0.1052-2e-3 11.62-11.7 0.1119z" fill="#535d6c"/>
   <path d="m142.8 285.5c3e-3 3.252-1.275 5.898-2.859 5.921-1.596 0.01-2.891-2.646-2.888-5.921-3e-3 -3.275 1.292-5.931 2.888-5.921 1.585 0.0228 2.862 2.669 2.859 5.921z" fill="#dbdee3"/>
   <path d="m131.4 285.5c3e-3 3.252-1.275 5.898-2.859 5.921-1.596 0.01-2.891-2.646-2.888-5.921-3e-3 -3.275 1.292-5.931 2.888-5.921 1.585 0.0228 2.862 2.669 2.859 5.921z" fill="#535d6c"/>
   <path d="m520.8 228.8a55.28 51.39 90 0 0-51.28 55.33 55.28 51.39 90 0 0 51.28 55.33 55.28 26.93 90 0 0 0.2422 0 55.28 26.93 90 0 1-21.8-22.84 55.28 26.93 90 0 1-2e-3 -8e-3 55.28 26.93 90 0 1-5.123-32.49 55.28 26.93 90 0 1 26.85-55.33 55.28 26.93 90 0 0-0.1621 0z" fill="url(#radialGradient1496)"/>
  </g>
 </g>
 <script id="mesh_polyfill" type="text/javascript">!function(){const t="http://www.w3.org/2000/svg",e="http://www.w3.org/1999/xlink",s="http://www.w3.org/1999/xhtml",r=2;if(document.createElementNS(t,"meshgradient").x)return;const n=(t,e,s,r)=&gt;{let n=new x(.5*(e.x+s.x),.5*(e.y+s.y)),o=new x(.5*(t.x+e.x),.5*(t.y+e.y)),i=new x(.5*(s.x+r.x),.5*(s.y+r.y)),a=new x(.5*(n.x+o.x),.5*(n.y+o.y)),h=new x(.5*(n.x+i.x),.5*(n.y+i.y)),l=new x(.5*(a.x+h.x),.5*(a.y+h.y));return[[t,o,a,l],[l,h,i,r]]},o=t=&gt;{let e=t[0].distSquared(t[1]),s=t[2].distSquared(t[3]),r=.25*t[0].distSquared(t[2]),n=.25*t[1].distSquared(t[3]),o=e&gt;s?e:s,i=r&gt;n?r:n;return 18*(o&gt;i?o:i)},i=(t,e)=&gt;Math.sqrt(t.distSquared(e)),a=(t,e)=&gt;t.scale(2/3).add(e.scale(1/3)),h=t=&gt;{let e,s,r,n,o,i,a,h=new g;return t.match(/(\w+\(\s*[^)]+\))+/g).forEach(t=&gt;{let l=t.match(/[\w.-]+/g),d=l.shift();switch(d){case"translate":2===l.length?e=new g(1,0,0,1,l[0],l[1]):(console.error("mesh.js: translate does not have 2 arguments!"),e=new g(1,0,0,1,0,0)),h=h.append(e);break;case"scale":1===l.length?s=new g(l[0],0,0,l[0],0,0):2===l.length?s=new g(l[0],0,0,l[1],0,0):(console.error("mesh.js: scale does not have 1 or 2 arguments!"),s=new g(1,0,0,1,0,0)),h=h.append(s);break;case"rotate":if(3===l.length&amp;&amp;(e=new g(1,0,0,1,l[1],l[2]),h=h.append(e)),l[0]){r=l[0]*Math.PI/180;let t=Math.cos(r),e=Math.sin(r);Math.abs(t)&lt;1e-16&amp;&amp;(t=0),Math.abs(e)&lt;1e-16&amp;&amp;(e=0),a=new g(t,e,-e,t,0,0),h=h.append(a)}else console.error("math.js: No argument to rotate transform!");3===l.length&amp;&amp;(e=new g(1,0,0,1,-l[1],-l[2]),h=h.append(e));break;case"skewX":l[0]?(r=l[0]*Math.PI/180,n=Math.tan(r),o=new g(1,0,n,1,0,0),h=h.append(o)):console.error("math.js: No argument to skewX transform!");break;case"skewY":l[0]?(r=l[0]*Math.PI/180,n=Math.tan(r),i=new g(1,n,0,1,0,0),h=h.append(i)):console.error("math.js: No argument to skewY transform!");break;case"matrix":6===l.length?h=h.append(new g(...l)):console.error("math.js: Incorrect number of arguments for matrix!");break;default:console.error("mesh.js: Unhandled transform type: "+d)}}),h},l=t=&gt;{let e=[],s=t.split(/[ ,]+/);for(let t=0,r=s.length-1;t&lt;r;t+=2)e.push(new x(parseFloat(s[t]),parseFloat(s[t+1])));return e},d=(t,e)=&gt;{for(let s in e)t.setAttribute(s,e[s])},c=(t,e,s,r,n)=&gt;{let o,i,a=[0,0,0,0];for(let h=0;h&lt;3;++h)e[h]&lt;t[h]&amp;&amp;e[h]&lt;s[h]||t[h]&lt;e[h]&amp;&amp;s[h]&lt;e[h]?a[h]=0:(a[h]=.5*((e[h]-t[h])/r+(s[h]-e[h])/n),o=Math.abs(3*(e[h]-t[h])/r),i=Math.abs(3*(s[h]-e[h])/n),a[h]&gt;o?a[h]=o:a[h]&gt;i&amp;&amp;(a[h]=i));return a},u=[[1,0,0,0,0,0,0,0,0,0,0,0,0,0,0,0],[0,0,0,0,1,0,0,0,0,0,0,0,0,0,0,0],[-3,3,0,0,-2,-1,0,0,0,0,0,0,0,0,0,0],[2,-2,0,0,1,1,0,0,0,0,0,0,0,0,0,0],[0,0,0,0,0,0,0,0,1,0,0,0,0,0,0,0],[0,0,0,0,0,0,0,0,0,0,0,0,1,0,0,0],[0,0,0,0,0,0,0,0,-3,3,0,0,-2,-1,0,0],[0,0,0,0,0,0,0,0,2,-2,0,0,1,1,0,0],[-3,0,3,0,0,0,0,0,-2,0,-1,0,0,0,0,0],[0,0,0,0,-3,0,3,0,0,0,0,0,-2,0,-1,0],[9,-9,-9,9,6,3,-6,-3,6,-6,3,-3,4,2,2,1],[-6,6,6,-6,-3,-3,3,3,-4,4,-2,2,-2,-2,-1,-1],[2,0,-2,0,0,0,0,0,1,0,1,0,0,0,0,0],[0,0,0,0,2,0,-2,0,0,0,0,0,1,0,1,0],[-6,6,6,-6,-4,-2,4,2,-3,3,-3,3,-2,-1,-2,-1],[4,-4,-4,4,2,2,-2,-2,2,-2,2,-2,1,1,1,1]],f=t=&gt;{let e=[];for(let s=0;s&lt;16;++s){e[s]=0;for(let r=0;r&lt;16;++r)e[s]+=u[s][r]*t[r]}return e},p=(t,e,s)=&gt;{const r=e*e,n=s*s,o=e*e*e,i=s*s*s;return t[0]+t[1]*e+t[2]*r+t[3]*o+t[4]*s+t[5]*s*e+t[6]*s*r+t[7]*s*o+t[8]*n+t[9]*n*e+t[10]*n*r+t[11]*n*o+t[12]*i+t[13]*i*e+t[14]*i*r+t[15]*i*o},y=t=&gt;{let e=[],s=[],r=[];for(let s=0;s&lt;4;++s)e[s]=[],e[s][0]=n(t[0][s],t[1][s],t[2][s],t[3][s]),e[s][1]=[],e[s][1].push(...n(...e[s][0][0])),e[s][1].push(...n(...e[s][0][1])),e[s][2]=[],e[s][2].push(...n(...e[s][1][0])),e[s][2].push(...n(...e[s][1][1])),e[s][2].push(...n(...e[s][1][2])),e[s][2].push(...n(...e[s][1][3]));for(let t=0;t&lt;8;++t){s[t]=[];for(let r=0;r&lt;4;++r)s[t][r]=[],s[t][r][0]=n(e[0][2][t][r],e[1][2][t][r],e[2][2][t][r],e[3][2][t][r]),s[t][r][1]=[],s[t][r][1].push(...n(...s[t][r][0][0])),s[t][r][1].push(...n(...s[t][r][0][1])),s[t][r][2]=[],s[t][r][2].push(...n(...s[t][r][1][0])),s[t][r][2].push(...n(...s[t][r][1][1])),s[t][r][2].push(...n(...s[t][r][1][2])),s[t][r][2].push(...n(...s[t][r][1][3]))}for(let t=0;t&lt;8;++t){r[t]=[];for(let e=0;e&lt;8;++e)r[t][e]=[],r[t][e][0]=s[t][0][2][e],r[t][e][1]=s[t][1][2][e],r[t][e][2]=s[t][2][2][e],r[t][e][3]=s[t][3][2][e]}return r};class x{constructor(t,e){this.x=t||0,this.y=e||0}toString(){return`(x=${this.x}, y=${this.y})`}clone(){return new x(this.x,this.y)}add(t){return new x(this.x+t.x,this.y+t.y)}scale(t){return void 0===t.x?new x(this.x*t,this.y*t):new x(this.x*t.x,this.y*t.y)}distSquared(t){let e=this.x-t.x,s=this.y-t.y;return e*e+s*s}transform(t){let e=this.x*t.a+this.y*t.c+t.e,s=this.x*t.b+this.y*t.d+t.f;return new x(e,s)}}class g{constructor(t,e,s,r,n,o){void 0===t?(this.a=1,this.b=0,this.c=0,this.d=1,this.e=0,this.f=0):(this.a=t,this.b=e,this.c=s,this.d=r,this.e=n,this.f=o)}toString(){return`affine: ${this.a} ${this.c} ${this.e} \n       ${this.b} ${this.d} ${this.f}`}append(t){t instanceof g||console.error("mesh.js: argument to Affine.append is not affine!");let e=this.a*t.a+this.c*t.b,s=this.b*t.a+this.d*t.b,r=this.a*t.c+this.c*t.d,n=this.b*t.c+this.d*t.d,o=this.a*t.e+this.c*t.f+this.e,i=this.b*t.e+this.d*t.f+this.f;return new g(e,s,r,n,o,i)}}class w{constructor(t,e){this.nodes=t,this.colors=e}paintCurve(t,e){if(o(this.nodes)&gt;r){const s=n(...this.nodes);let r=[[],[]],o=[[],[]];for(let t=0;t&lt;4;++t)r[0][t]=this.colors[0][t],r[1][t]=(this.colors[0][t]+this.colors[1][t])/2,o[0][t]=r[1][t],o[1][t]=this.colors[1][t];let i=new w(s[0],r),a=new w(s[1],o);i.paintCurve(t,e),a.paintCurve(t,e)}else{let s=Math.round(this.nodes[0].x);if(s&gt;=0&amp;&amp;s&lt;e){let r=4*(~~this.nodes[0].y*e+s);t[r]=Math.round(this.colors[0][0]),t[r+1]=Math.round(this.colors[0][1]),t[r+2]=Math.round(this.colors[0][2]),t[r+3]=Math.round(this.colors[0][3])}}}}class m{constructor(t,e){this.nodes=t,this.colors=e}split(){let t=[[],[],[],[]],e=[[],[],[],[]],s=[[[],[]],[[],[]]],r=[[[],[]],[[],[]]];for(let s=0;s&lt;4;++s){const r=n(this.nodes[0][s],this.nodes[1][s],this.nodes[2][s],this.nodes[3][s]);t[0][s]=r[0][0],t[1][s]=r[0][1],t[2][s]=r[0][2],t[3][s]=r[0][3],e[0][s]=r[1][0],e[1][s]=r[1][1],e[2][s]=r[1][2],e[3][s]=r[1][3]}for(let t=0;t&lt;4;++t)s[0][0][t]=this.colors[0][0][t],s[0][1][t]=this.colors[0][1][t],s[1][0][t]=(this.colors[0][0][t]+this.colors[1][0][t])/2,s[1][1][t]=(this.colors[0][1][t]+this.colors[1][1][t])/2,r[0][0][t]=s[1][0][t],r[0][1][t]=s[1][1][t],r[1][0][t]=this.colors[1][0][t],r[1][1][t]=this.colors[1][1][t];return[new m(t,s),new m(e,r)]}paint(t,e){let s,n=!1;for(let t=0;t&lt;4;++t)if((s=o([this.nodes[0][t],this.nodes[1][t],this.nodes[2][t],this.nodes[3][t]]))&gt;r){n=!0;break}if(n){let s=this.split();s[0].paint(t,e),s[1].paint(t,e)}else{new w([...this.nodes[0]],[...this.colors[0]]).paintCurve(t,e)}}}class b{constructor(t){this.readMesh(t),this.type=t.getAttribute("type")||"bilinear"}readMesh(t){let e=[[]],s=[[]],r=Number(t.getAttribute("x")),n=Number(t.getAttribute("y"));e[0][0]=new x(r,n);let o=t.children;for(let t=0,r=o.length;t&lt;r;++t){e[3*t+1]=[],e[3*t+2]=[],e[3*t+3]=[],s[t+1]=[];let r=o[t].children;for(let n=0,o=r.length;n&lt;o;++n){let o=r[n].children;for(let r=0,i=o.length;r&lt;i;++r){let i=r;0!==t&amp;&amp;++i;let h,d=o[r].getAttribute("path"),c="l";null!=d&amp;&amp;(c=(h=d.match(/\s*([lLcC])\s*(.*)/))[1]);let u=l(h[2]);switch(c){case"l":0===i?(e[3*t][3*n+3]=u[0].add(e[3*t][3*n]),e[3*t][3*n+1]=a(e[3*t][3*n],e[3*t][3*n+3]),e[3*t][3*n+2]=a(e[3*t][3*n+3],e[3*t][3*n])):1===i?(e[3*t+3][3*n+3]=u[0].add(e[3*t][3*n+3]),e[3*t+1][3*n+3]=a(e[3*t][3*n+3],e[3*t+3][3*n+3]),e[3*t+2][3*n+3]=a(e[3*t+3][3*n+3],e[3*t][3*n+3])):2===i?(0===n&amp;&amp;(e[3*t+3][3*n+0]=u[0].add(e[3*t+3][3*n+3])),e[3*t+3][3*n+1]=a(e[3*t+3][3*n],e[3*t+3][3*n+3]),e[3*t+3][3*n+2]=a(e[3*t+3][3*n+3],e[3*t+3][3*n])):(e[3*t+1][3*n]=a(e[3*t][3*n],e[3*t+3][3*n]),e[3*t+2][3*n]=a(e[3*t+3][3*n],e[3*t][3*n]));break;case"L":0===i?(e[3*t][3*n+3]=u[0],e[3*t][3*n+1]=a(e[3*t][3*n],e[3*t][3*n+3]),e[3*t][3*n+2]=a(e[3*t][3*n+3],e[3*t][3*n])):1===i?(e[3*t+3][3*n+3]=u[0],e[3*t+1][3*n+3]=a(e[3*t][3*n+3],e[3*t+3][3*n+3]),e[3*t+2][3*n+3]=a(e[3*t+3][3*n+3],e[3*t][3*n+3])):2===i?(0===n&amp;&amp;(e[3*t+3][3*n+0]=u[0]),e[3*t+3][3*n+1]=a(e[3*t+3][3*n],e[3*t+3][3*n+3]),e[3*t+3][3*n+2]=a(e[3*t+3][3*n+3],e[3*t+3][3*n])):(e[3*t+1][3*n]=a(e[3*t][3*n],e[3*t+3][3*n]),e[3*t+2][3*n]=a(e[3*t+3][3*n],e[3*t][3*n]));break;case"c":0===i?(e[3*t][3*n+1]=u[0].add(e[3*t][3*n]),e[3*t][3*n+2]=u[1].add(e[3*t][3*n]),e[3*t][3*n+3]=u[2].add(e[3*t][3*n])):1===i?(e[3*t+1][3*n+3]=u[0].add(e[3*t][3*n+3]),e[3*t+2][3*n+3]=u[1].add(e[3*t][3*n+3]),e[3*t+3][3*n+3]=u[2].add(e[3*t][3*n+3])):2===i?(e[3*t+3][3*n+2]=u[0].add(e[3*t+3][3*n+3]),e[3*t+3][3*n+1]=u[1].add(e[3*t+3][3*n+3]),0===n&amp;&amp;(e[3*t+3][3*n+0]=u[2].add(e[3*t+3][3*n+3]))):(e[3*t+2][3*n]=u[0].add(e[3*t+3][3*n]),e[3*t+1][3*n]=u[1].add(e[3*t+3][3*n]));break;case"C":0===i?(e[3*t][3*n+1]=u[0],e[3*t][3*n+2]=u[1],e[3*t][3*n+3]=u[2]):1===i?(e[3*t+1][3*n+3]=u[0],e[3*t+2][3*n+3]=u[1],e[3*t+3][3*n+3]=u[2]):2===i?(e[3*t+3][3*n+2]=u[0],e[3*t+3][3*n+1]=u[1],0===n&amp;&amp;(e[3*t+3][3*n+0]=u[2])):(e[3*t+2][3*n]=u[0],e[3*t+1][3*n]=u[1]);break;default:console.error("mesh.js: "+c+" invalid path type.")}if(0===t&amp;&amp;0===n||r&gt;0){let e=window.getComputedStyle(o[r]).stopColor.match(/^rgb\s*\(\s*(\d+)\s*,\s*(\d+)\s*,\s*(\d+)\s*\)$/i),a=window.getComputedStyle(o[r]).stopOpacity,h=255;a&amp;&amp;(h=Math.floor(255*a)),e&amp;&amp;(0===i?(s[t][n]=[],s[t][n][0]=Math.floor(e[1]),s[t][n][1]=Math.floor(e[2]),s[t][n][2]=Math.floor(e[3]),s[t][n][3]=h):1===i?(s[t][n+1]=[],s[t][n+1][0]=Math.floor(e[1]),s[t][n+1][1]=Math.floor(e[2]),s[t][n+1][2]=Math.floor(e[3]),s[t][n+1][3]=h):2===i?(s[t+1][n+1]=[],s[t+1][n+1][0]=Math.floor(e[1]),s[t+1][n+1][1]=Math.floor(e[2]),s[t+1][n+1][2]=Math.floor(e[3]),s[t+1][n+1][3]=h):3===i&amp;&amp;(s[t+1][n]=[],s[t+1][n][0]=Math.floor(e[1]),s[t+1][n][1]=Math.floor(e[2]),s[t+1][n][2]=Math.floor(e[3]),s[t+1][n][3]=h))}}e[3*t+1][3*n+1]=new x,e[3*t+1][3*n+2]=new x,e[3*t+2][3*n+1]=new x,e[3*t+2][3*n+2]=new x,e[3*t+1][3*n+1].x=(-4*e[3*t][3*n].x+6*(e[3*t][3*n+1].x+e[3*t+1][3*n].x)+-2*(e[3*t][3*n+3].x+e[3*t+3][3*n].x)+3*(e[3*t+3][3*n+1].x+e[3*t+1][3*n+3].x)+-1*e[3*t+3][3*n+3].x)/9,e[3*t+1][3*n+2].x=(-4*e[3*t][3*n+3].x+6*(e[3*t][3*n+2].x+e[3*t+1][3*n+3].x)+-2*(e[3*t][3*n].x+e[3*t+3][3*n+3].x)+3*(e[3*t+3][3*n+2].x+e[3*t+1][3*n].x)+-1*e[3*t+3][3*n].x)/9,e[3*t+2][3*n+1].x=(-4*e[3*t+3][3*n].x+6*(e[3*t+3][3*n+1].x+e[3*t+2][3*n].x)+-2*(e[3*t+3][3*n+3].x+e[3*t][3*n].x)+3*(e[3*t][3*n+1].x+e[3*t+2][3*n+3].x)+-1*e[3*t][3*n+3].x)/9,e[3*t+2][3*n+2].x=(-4*e[3*t+3][3*n+3].x+6*(e[3*t+3][3*n+2].x+e[3*t+2][3*n+3].x)+-2*(e[3*t+3][3*n].x+e[3*t][3*n+3].x)+3*(e[3*t][3*n+2].x+e[3*t+2][3*n].x)+-1*e[3*t][3*n].x)/9,e[3*t+1][3*n+1].y=(-4*e[3*t][3*n].y+6*(e[3*t][3*n+1].y+e[3*t+1][3*n].y)+-2*(e[3*t][3*n+3].y+e[3*t+3][3*n].y)+3*(e[3*t+3][3*n+1].y+e[3*t+1][3*n+3].y)+-1*e[3*t+3][3*n+3].y)/9,e[3*t+1][3*n+2].y=(-4*e[3*t][3*n+3].y+6*(e[3*t][3*n+2].y+e[3*t+1][3*n+3].y)+-2*(e[3*t][3*n].y+e[3*t+3][3*n+3].y)+3*(e[3*t+3][3*n+2].y+e[3*t+1][3*n].y)+-1*e[3*t+3][3*n].y)/9,e[3*t+2][3*n+1].y=(-4*e[3*t+3][3*n].y+6*(e[3*t+3][3*n+1].y+e[3*t+2][3*n].y)+-2*(e[3*t+3][3*n+3].y+e[3*t][3*n].y)+3*(e[3*t][3*n+1].y+e[3*t+2][3*n+3].y)+-1*e[3*t][3*n+3].y)/9,e[3*t+2][3*n+2].y=(-4*e[3*t+3][3*n+3].y+6*(e[3*t+3][3*n+2].y+e[3*t+2][3*n+3].y)+-2*(e[3*t+3][3*n].y+e[3*t][3*n+3].y)+3*(e[3*t][3*n+2].y+e[3*t+2][3*n].y)+-1*e[3*t][3*n].y)/9}}this.nodes=e,this.colors=s}paintMesh(t,e){let s=(this.nodes.length-1)/3,r=(this.nodes[0].length-1)/3;if("bilinear"===this.type||s&lt;2||r&lt;2){let n;for(let o=0;o&lt;s;++o)for(let s=0;s&lt;r;++s){let r=[];for(let t=3*o,e=3*o+4;t&lt;e;++t)r.push(this.nodes[t].slice(3*s,3*s+4));let i=[];i.push(this.colors[o].slice(s,s+2)),i.push(this.colors[o+1].slice(s,s+2)),(n=new m(r,i)).paint(t,e)}}else{let n,o,a,h,l,d,u;const x=s,g=r;s++,r++;let w=new Array(s);for(let t=0;t&lt;s;++t){w[t]=new Array(r);for(let e=0;e&lt;r;++e)w[t][e]=[],w[t][e][0]=this.nodes[3*t][3*e],w[t][e][1]=this.colors[t][e]}for(let t=0;t&lt;s;++t)for(let e=0;e&lt;r;++e)0!==t&amp;&amp;t!==x&amp;&amp;(n=i(w[t-1][e][0],w[t][e][0]),o=i(w[t+1][e][0],w[t][e][0]),w[t][e][2]=c(w[t-1][e][1],w[t][e][1],w[t+1][e][1],n,o)),0!==e&amp;&amp;e!==g&amp;&amp;(n=i(w[t][e-1][0],w[t][e][0]),o=i(w[t][e+1][0],w[t][e][0]),w[t][e][3]=c(w[t][e-1][1],w[t][e][1],w[t][e+1][1],n,o));for(let t=0;t&lt;r;++t){w[0][t][2]=[],w[x][t][2]=[];for(let e=0;e&lt;4;++e)n=i(w[1][t][0],w[0][t][0]),o=i(w[x][t][0],w[x-1][t][0]),w[0][t][2][e]=n&gt;0?2*(w[1][t][1][e]-w[0][t][1][e])/n-w[1][t][2][e]:0,w[x][t][2][e]=o&gt;0?2*(w[x][t][1][e]-w[x-1][t][1][e])/o-w[x-1][t][2][e]:0}for(let t=0;t&lt;s;++t){w[t][0][3]=[],w[t][g][3]=[];for(let e=0;e&lt;4;++e)n=i(w[t][1][0],w[t][0][0]),o=i(w[t][g][0],w[t][g-1][0]),w[t][0][3][e]=n&gt;0?2*(w[t][1][1][e]-w[t][0][1][e])/n-w[t][1][3][e]:0,w[t][g][3][e]=o&gt;0?2*(w[t][g][1][e]-w[t][g-1][1][e])/o-w[t][g-1][3][e]:0}for(let s=0;s&lt;x;++s)for(let r=0;r&lt;g;++r){let n=i(w[s][r][0],w[s+1][r][0]),o=i(w[s][r+1][0],w[s+1][r+1][0]),c=i(w[s][r][0],w[s][r+1][0]),x=i(w[s+1][r][0],w[s+1][r+1][0]),g=[[],[],[],[]];for(let t=0;t&lt;4;++t){(d=[])[0]=w[s][r][1][t],d[1]=w[s+1][r][1][t],d[2]=w[s][r+1][1][t],d[3]=w[s+1][r+1][1][t],d[4]=w[s][r][2][t]*n,d[5]=w[s+1][r][2][t]*n,d[6]=w[s][r+1][2][t]*o,d[7]=w[s+1][r+1][2][t]*o,d[8]=w[s][r][3][t]*c,d[9]=w[s+1][r][3][t]*x,d[10]=w[s][r+1][3][t]*c,d[11]=w[s+1][r+1][3][t]*x,d[12]=0,d[13]=0,d[14]=0,d[15]=0,u=f(d);for(let e=0;e&lt;9;++e){g[t][e]=[];for(let s=0;s&lt;9;++s)g[t][e][s]=p(u,e/8,s/8),g[t][e][s]&gt;255?g[t][e][s]=255:g[t][e][s]&lt;0&amp;&amp;(g[t][e][s]=0)}}h=[];for(let t=3*s,e=3*s+4;t&lt;e;++t)h.push(this.nodes[t].slice(3*r,3*r+4));l=y(h);for(let s=0;s&lt;8;++s)for(let r=0;r&lt;8;++r)(a=new m(l[s][r],[[[g[0][s][r],g[1][s][r],g[2][s][r],g[3][s][r]],[g[0][s][r+1],g[1][s][r+1],g[2][s][r+1],g[3][s][r+1]]],[[g[0][s+1][r],g[1][s+1][r],g[2][s+1][r],g[3][s+1][r]],[g[0][s+1][r+1],g[1][s+1][r+1],g[2][s+1][r+1],g[3][s+1][r+1]]]])).paint(t,e)}}}transform(t){if(t instanceof x)for(let e=0,s=this.nodes.length;e&lt;s;++e)for(let s=0,r=this.nodes[0].length;s&lt;r;++s)this.nodes[e][s]=this.nodes[e][s].add(t);else if(t instanceof g)for(let e=0,s=this.nodes.length;e&lt;s;++e)for(let s=0,r=this.nodes[0].length;s&lt;r;++s)this.nodes[e][s]=this.nodes[e][s].transform(t)}scale(t){for(let e=0,s=this.nodes.length;e&lt;s;++e)for(let s=0,r=this.nodes[0].length;s&lt;r;++s)this.nodes[e][s]=this.nodes[e][s].scale(t)}}document.querySelectorAll("rect,circle,ellipse,path,text").forEach((r,n)=&gt;{let o=r.getAttribute("id");o||(o="patchjs_shape"+n,r.setAttribute("id",o));const i=r.style.fill.match(/^url\(\s*"?\s*#([^\s"]+)"?\s*\)/),a=r.style.stroke.match(/^url\(\s*"?\s*#([^\s"]+)"?\s*\)/);if(i&amp;&amp;i[1]){const a=document.getElementById(i[1]);if(a&amp;&amp;"meshgradient"===a.nodeName){const i=r.getBBox();let l=document.createElementNS(s,"canvas");d(l,{width:i.width,height:i.height});const c=l.getContext("2d");let u=c.createImageData(i.width,i.height);const f=new b(a);"objectBoundingBox"===a.getAttribute("gradientUnits")&amp;&amp;f.scale(new x(i.width,i.height));const p=a.getAttribute("gradientTransform");null!=p&amp;&amp;f.transform(h(p)),"userSpaceOnUse"===a.getAttribute("gradientUnits")&amp;&amp;f.transform(new x(-i.x,-i.y)),f.paintMesh(u.data,l.width),c.putImageData(u,0,0);const y=document.createElementNS(t,"image");d(y,{width:i.width,height:i.height,x:i.x,y:i.y});let g=l.toDataURL();y.setAttributeNS(e,"xlink:href",g),r.parentNode.insertBefore(y,r),r.style.fill="none";const w=document.createElementNS(t,"use");w.setAttributeNS(e,"xlink:href","#"+o);const m="patchjs_clip"+n,M=document.createElementNS(t,"clipPath");M.setAttribute("id",m),M.appendChild(w),r.parentElement.insertBefore(M,r),y.setAttribute("clip-path","url(#"+m+")"),u=null,l=null,g=null}}if(a&amp;&amp;a[1]){const o=document.getElementById(a[1]);if(o&amp;&amp;"meshgradient"===o.nodeName){const i=parseFloat(r.style.strokeWidth.slice(0,-2))*(parseFloat(r.style.strokeMiterlimit)||parseFloat(r.getAttribute("stroke-miterlimit"))||1),a=r.getBBox(),l=Math.trunc(a.width+i),c=Math.trunc(a.height+i),u=Math.trunc(a.x-i/2),f=Math.trunc(a.y-i/2);let p=document.createElementNS(s,"canvas");d(p,{width:l,height:c});const y=p.getContext("2d");let g=y.createImageData(l,c);const w=new b(o);"objectBoundingBox"===o.getAttribute("gradientUnits")&amp;&amp;w.scale(new x(l,c));const m=o.getAttribute("gradientTransform");null!=m&amp;&amp;w.transform(h(m)),"userSpaceOnUse"===o.getAttribute("gradientUnits")&amp;&amp;w.transform(new x(-u,-f)),w.paintMesh(g.data,p.width),y.putImageData(g,0,0);const M=document.createElementNS(t,"image");d(M,{width:l,height:c,x:0,y:0});let S=p.toDataURL();M.setAttributeNS(e,"xlink:href",S);const k="pattern_clip"+n,A=document.createElementNS(t,"pattern");d(A,{id:k,patternUnits:"userSpaceOnUse",width:l,height:c,x:u,y:f}),A.appendChild(M),o.parentNode.appendChild(A),r.style.stroke="url(#"+k+")",g=null,p=null,S=null}}})}();</script>
</svg>
