<?xml version="1.0" encoding="UTF-8"?>
<svg width="50" height="50" version="1.1" viewBox="0 0 50 50" xmlns="http://www.w3.org/2000/svg" xmlns:cc="http://creativecommons.org/ns#" xmlns:dc="http://purl.org/dc/elements/1.1/" xmlns:rdf="http://www.w3.org/1999/02/22-rdf-syntax-ns#">
 <metadata>
  <rdf:RDF>
   <cc:Work rdf:about="">
    <dc:format>image/svg+xml</dc:format>
    <dc:type rdf:resource="http://purl.org/dc/dcmitype/StillImage"/>
    <dc:title/>
   </cc:Work>
  </rdf:RDF>
 </metadata>
 <path d="m4.213 23.91c-0.017 0.36-0.045 0.73-0.043 1.09 0 0.36 0.031 0.72 0.051 1.08h41.61c0.01-0.36 0.04-0.73 0.04-1.09s-0.03-0.72-0.05-1.08h-41.61zm41.66 1.08-41.7 0.01c0.037 6.01 2.67 12 7.327 15.9 6.44 5.63 16.4 6.58 23.8 2.26 6.48-3.56 10.6-10.8 10.6-18.1zm-27.4 2.62c3.81-0.13 7.15 4.03 5.76 7.69-0.99 2.95-4.82 4.06-7.43 2.58-3-1.38-4.47-5.61-2.33-8.32 0.93-1.24 2.46-1.95 4-1.95zm21.4 5.91c1.07-0.15 1.62 1.07 1.24 1.95-0.82 2.38-2.93 4.39-5.39 4.99-0.95 0.31-1.99-0.5-1.72-1.52 0.54-2.43 2.62-4.36 4.89-5.24 0.32-0.11 0.65-0.18 0.98-0.18zm-14.93-29.38c-8.51-0.07-16.7 5.661-19.5 13.7-0.873 2.29-1.28 4.73-1.27 7.16l41.7-0.01c0-1.15-0.1-2.3-0.31-3.44-1.29-8.41-8.25-15.5-16.6-17-1.33-0.26-2.69-0.38-4.04-0.37zm-9.68 5.081c2.05-0.153 3.7 1.87 3.35 3.84-0.31 3.06-3.66 5.88-6.73 4.75-2.21-0.9-2.4-3.89-1.21-5.69 0.94-1.61 2.68-2.86 4.59-2.9zm20 1.3c3.49 0.24 6.19 3.46 6.86 6.73 0.5 1.96-0.36 4.59-2.61 4.9-3.08 0.35-5.71-2.19-6.93-4.81-0.97-2-1.22-5.08 0.95-6.4 0.52-0.3 1.13-0.43 1.73-0.42z" fill="#f00"/>
</svg>
