<?xml version="1.0" encoding="UTF-8"?>
<svg width="24" height="24" version="1.1" viewBox="0 0 24 24" xmlns="http://www.w3.org/2000/svg" xmlns:cc="http://creativecommons.org/ns#" xmlns:dc="http://purl.org/dc/elements/1.1/" xmlns:rdf="http://www.w3.org/1999/02/22-rdf-syntax-ns#">
 <metadata>
  <rdf:RDF>
   <cc:Work rdf:about="">
    <dc:format>image/svg+xml</dc:format>
    <dc:type rdf:resource="http://purl.org/dc/dcmitype/StillImage"/>
    <dc:title/>
   </cc:Work>
  </rdf:RDF>
 </metadata>
 <path d="M0 0h24v24H0V0z" fill="none"/>
 <path d="m3 7c0 0.55 0.45 1 1 1h16c0.55 0 1-0.45 1-1s-0.45-1-1-1h-16c-0.55 0-1 0.45-1 1z"/>
 <path d="m4 13h10.91c0.55 0 1-0.45 1-1s-0.45-1-1-1h-10.91c-0.55 0-1 0.45-1 1s0.45 1 1 1z"/>
 <path d="m4 18h5.95c0.55 0 1-0.45 1-1s-0.45-1-1-1h-5.95c-0.55 0-1 0.45-1 1s0.45 1 1 1z"/>
</svg>
